<svg width="335" height="57" viewBox="0 0 335 57" fill="none" xmlns="http://www.w3.org/2000/svg">
<rect width="335" height="57" fill="#F5F5F5"/>
<path d="M78.096 40.176C78.1813 39.28 78.2453 37.9147 78.288 36.08C78.3733 34.8427 78.5227 33.8827 78.736 33.2C78.9493 32.4747 79.056 31.984 79.056 31.728C79.056 31.5573 79.0773 31.344 79.12 31.088C79.1627 30.832 79.184 30.576 79.184 30.32C79.184 30.064 79.12 29.8507 78.992 29.68C78.9067 29.5093 78.736 29.424 78.48 29.424L78.864 25.456C79.3333 24.2187 79.5893 22.576 79.632 20.528C79.6747 19.5467 79.6747 18.6293 79.632 17.776C79.5893 16.9227 79.6747 16.1547 79.888 15.472L80.08 12.656C80.8907 12.784 81.104 12.4213 80.72 11.568C80.592 11.0987 80.4853 10.7573 80.4 10.544C80.3573 10.3307 80.4 10.224 80.528 10.224C80.6133 9.75466 80.656 9.17866 80.656 8.496C80.6987 7.77066 80.7627 6.66133 80.848 5.168L82.128 4.464C82.7253 4.72 83.5573 4.95467 84.624 5.168C85.7333 5.33867 86.6507 5.46667 87.376 5.552C88.2293 5.68 88.912 5.78667 89.424 5.872C89.936 5.91466 90.2773 5.95733 90.448 6L90.96 7.152C90.7893 8.048 90.64 8.98667 90.512 9.968C90.4267 10.9067 90.3413 11.8453 90.256 12.784C90.2133 13.68 90.1493 14.5547 90.064 15.408C89.9787 16.2187 89.872 16.9227 89.744 17.52C89.5733 17.9467 89.5307 19.0773 89.616 20.912C89.6587 21.1253 89.68 21.3387 89.68 21.552C89.68 21.7653 89.68 21.9573 89.68 22.128V22.896C89.68 23.1947 89.6587 23.408 89.616 23.536C89.0187 23.8773 88.6133 24.4533 88.4 25.264C88.2293 26.032 88.208 26.9067 88.336 27.888C88.4213 28.272 88.5493 28.592 88.72 28.848C88.8907 29.0613 89.0613 29.616 89.232 30.512C89.36 30.9813 89.424 31.5147 89.424 32.112C89.4667 32.7093 89.4667 33.3067 89.424 33.904C89.424 34.5013 89.4027 35.0987 89.36 35.696C89.3173 36.2507 89.296 36.7413 89.296 37.168C88.7413 37.5947 88.4853 38.0853 88.528 38.64C88.5707 39.152 88.6347 39.6213 88.72 40.048C88.5067 40.176 88.2933 40.2827 88.08 40.368C87.9947 40.4107 87.9307 40.432 87.888 40.432C87.8453 40.432 87.8027 40.4533 87.76 40.496C87.5893 40.5813 87.44 40.6453 87.312 40.688C87.2267 40.7307 87.1413 40.7733 87.056 40.816H86.992L87.056 40.752C87.1413 40.6667 87.184 40.6027 87.184 40.56C87.056 40.6027 86.544 40.624 85.648 40.624H81.744C81.3173 40.6667 80.848 40.7093 80.336 40.752C79.824 40.7947 79.376 40.8587 78.992 40.944L78.096 40.176ZM115.664 42.864H108.048L104.784 42.032L105.04 38.96L102.672 35.568L99.408 31.216L95.312 28.016L93.264 27.632C92.9653 26.736 92.6027 25.968 92.176 25.328C92.0907 25.1573 92.0053 25.008 91.92 24.88C91.8347 24.752 91.7493 24.6453 91.664 24.56C91.536 24.304 91.3867 24.112 91.216 23.984L90.896 23.6C91.1947 23.216 91.4507 22.9813 91.664 22.896C91.8773 22.8107 92.112 22.7253 92.368 22.64C92.624 22.5547 92.9227 22.3627 93.264 22.064C93.648 21.7227 94.1813 21.104 94.864 20.208C95.248 19.6533 95.5893 19.184 95.888 18.8C96.2293 18.3733 96.5067 18.0107 96.72 17.712C96.848 17.5413 96.976 17.392 97.104 17.264C97.232 17.0933 97.3387 16.9653 97.424 16.88C97.8507 16.5387 98.64 15.792 99.792 14.64C100.987 13.488 102.501 11.888 104.336 9.84C105.573 8.47467 106.619 7.344 107.472 6.448C108.368 5.50933 109.072 4.784 109.584 4.272L111.056 3.952C111.355 4.29333 111.611 4.592 111.824 4.848C112.08 5.06133 112.293 5.296 112.464 5.552C112.805 5.38133 113.104 5.44533 113.36 5.744C113.616 6 113.808 6.27733 113.936 6.576C113.936 6.66133 114.021 6.768 114.192 6.896C114.405 7.024 114.597 7.17333 114.768 7.344C114.939 7.472 115.067 7.64267 115.152 7.856C115.237 8.02667 115.152 8.21867 114.896 8.432L113.744 9.584C113.573 9.75467 113.403 9.92533 113.232 10.096C113.104 10.224 112.997 10.3733 112.912 10.544C112.528 10.8427 111.568 11.3333 110.032 12.016C108.411 12.7413 107.387 13.3387 106.96 13.808C106.747 14.1067 106.512 14.4693 106.256 14.896C106.043 15.3227 105.787 15.7707 105.488 16.24C105.232 16.6667 104.933 17.072 104.592 17.456C104.293 17.84 103.973 18.1173 103.632 18.288C103.589 18.3307 103.525 18.3733 103.44 18.416C103.397 18.4587 103.248 18.608 102.992 18.864C102.949 18.8213 102.885 18.7787 102.8 18.736C102.757 18.6933 102.693 18.6293 102.608 18.544C102.565 18.5013 102.523 18.48 102.48 18.48C102.437 18.4373 102.395 18.3947 102.352 18.352C102.267 18.5653 102.117 18.6933 101.904 18.736C101.819 18.7787 101.669 18.8 101.456 18.8C100.944 19.184 100.667 19.632 100.624 20.144C100.624 20.6133 100.731 21.0187 100.944 21.36C100.987 21.4027 100.795 21.6373 100.368 22.064C99.984 22.4907 99.6427 22.9173 99.344 23.344L101.2 24.304L104.336 28.272L110.864 34.672L115.664 39.472L117.264 40.368L117.2 41.52L115.664 42.864ZM86.928 40.88L86.992 40.816L86.928 40.88ZM147.282 15.92V18.864H145.618L143.186 20.784C141.095 21.0827 139.389 21.5093 138.066 22.064C136.743 22.576 136.125 23.3013 136.21 24.24C136.125 24.4533 136.082 24.7093 136.082 25.008C136.082 25.264 136.231 25.392 136.53 25.392L135.25 31.792L134.674 32.496V39.6L134.29 43.184L133.01 44.464L125.714 43.952L124.114 41.776L124.562 40.624L124.306 37.104L125.074 30.64L125.714 25.904C125.714 25.776 125.735 25.6693 125.778 25.584C125.778 25.4987 125.778 25.392 125.778 25.264C125.821 25.136 125.842 25.0293 125.842 24.944C126.055 24.7733 126.183 24.3893 126.226 23.792C126.311 23.1947 126.333 22.8107 126.29 22.64C126.29 22.3413 126.269 22.064 126.226 21.808C126.226 21.552 126.141 20.9973 125.97 20.144C125.927 19.888 125.778 19.5893 125.522 19.248C125.309 18.864 125.074 18.5227 124.818 18.224L125.65 16.24H126.866L133.458 15.024L135.058 15.792C134.93 16.5173 134.909 17.136 134.994 17.648C135.122 18.1173 135.293 18.48 135.506 18.736C135.762 18.992 136.039 19.1627 136.338 19.248C136.637 19.2907 136.893 19.248 137.106 19.12L138.258 18.48C138.471 18.3947 138.535 18.16 138.45 17.776C138.407 17.392 138.429 16.9013 138.514 16.304L146.45 14.896L147.282 15.92ZM180.538 22C180.666 22.7253 180.729 23.3653 180.729 23.92C180.729 24.432 180.708 24.944 180.666 25.456C180.666 25.9253 180.687 26.3947 180.729 26.864C180.815 27.2907 180.986 27.76 181.242 28.272C181.156 28.4427 180.943 28.784 180.602 29.296C180.303 29.7653 180.09 30.256 179.962 30.768C179.876 31.2373 179.812 31.6 179.77 31.856C179.727 32.112 179.684 32.2827 179.642 32.368C179.77 32.4533 179.876 32.624 179.962 32.88C180.004 33.0933 179.962 33.3707 179.833 33.712C179.706 34.0107 179.45 34.4373 179.066 34.992C178.298 36.016 177.871 36.8907 177.786 37.616C177.7 38.2987 177.53 38.832 177.274 39.216C177.188 39.3013 176.911 39.4293 176.442 39.6C176.015 39.7707 175.503 39.984 174.906 40.24C174.308 40.4533 173.711 40.7093 173.114 41.008C172.516 41.3067 172.047 41.6053 171.706 41.904C170.98 42.032 170.34 42.2027 169.786 42.416C169.231 42.6293 168.548 42.7787 167.738 42.864C166.97 43.0347 166.18 43.248 165.37 43.504C164.559 43.7173 164.111 43.824 164.026 43.824C162.02 43.824 160.826 43.888 160.442 44.016C160.1 44.144 159.695 44.208 159.226 44.208L153.402 42.096L150.714 38.192C150.714 37.168 150.671 36.3147 150.586 35.632C150.543 34.9067 150.479 34.288 150.394 33.776C150.308 33.2213 150.244 32.7093 150.202 32.24C150.159 31.7707 150.159 31.2373 150.202 30.64C150.33 30.512 150.522 30.2133 150.778 29.744C151.034 29.232 151.29 28.656 151.546 28.016C151.844 27.376 152.122 26.7147 152.378 26.032C152.676 25.3493 152.89 24.7733 153.018 24.304C153.359 23.3227 153.615 22.4693 153.786 21.744C153.956 20.976 154.084 20.2933 154.17 19.696C154.511 19.4827 154.788 19.248 155.002 18.992C155.215 18.736 155.428 18.5227 155.642 18.352C157.391 17.328 158.906 16.496 160.186 15.856C161.466 15.1733 162.66 14.7467 163.77 14.576L165.69 14.448C165.903 14.4907 166.095 14.5333 166.266 14.576C166.436 14.6187 166.607 14.6613 166.778 14.704C167.034 14.7893 167.268 14.8533 167.482 14.896C167.695 14.896 167.823 14.896 167.866 14.896L169.146 16.88C169.146 17.264 169.06 17.584 168.89 17.84C168.719 18.0533 168.89 18.2027 169.402 18.288C169.956 18.416 170.255 18.5013 170.298 18.544V18.608C170.98 18.608 171.684 18.4587 172.41 18.16C173.135 17.8187 173.86 17.648 174.586 17.648C174.756 17.648 175.055 17.7333 175.482 17.904C175.908 18.032 176.356 18.2027 176.826 18.416C177.295 18.6293 177.722 18.8427 178.106 19.056C178.532 19.2267 178.831 19.3547 179.002 19.44C178.916 20.08 178.938 20.528 179.066 20.784C179.194 21.04 179.364 21.232 179.578 21.36C179.791 21.4453 179.983 21.5307 180.154 21.616C180.367 21.6587 180.495 21.7867 180.538 22ZM169.082 38C169.722 37.5733 170.34 36.208 170.938 33.904C171.279 32.6667 171.556 31.7493 171.77 31.152C172.026 30.512 172.154 29.9147 172.154 29.36C172.154 28.4213 171.834 27.312 171.194 26.032C170.852 25.3493 170.596 24.7733 170.426 24.304C170.255 23.8347 170.127 23.3653 170.042 22.896C169.7 22.7253 169.508 22.4693 169.466 22.128C169.466 21.744 169.295 21.36 168.954 20.976C168.527 20.6347 168.271 20.5067 168.186 20.592C168.1 20.6773 168.015 20.72 167.93 20.72H167.354C167.012 20.72 166.543 20.784 165.946 20.912C165.391 21.04 164.943 21.3387 164.602 21.808C164.09 22.3627 163.642 22.8107 163.258 23.152C162.916 23.4507 162.724 23.6427 162.682 23.728C162.255 24.5387 161.871 25.2427 161.53 25.84C161.188 26.3947 160.911 26.8427 160.698 27.184L160.122 28.528C159.866 29.168 159.759 30.0213 159.802 31.088C159.887 31.2587 159.972 31.6427 160.058 32.24C160.143 32.7947 159.887 33.392 159.29 34.032C159.162 34.16 159.034 34.416 158.906 34.8C158.778 35.1413 158.692 35.5467 158.65 36.016C158.607 36.4853 158.65 36.9547 158.778 37.424C158.948 37.8933 159.268 38.2987 159.738 38.64C160.335 39.0667 160.954 39.4933 161.594 39.92C162.234 40.304 162.639 40.496 162.81 40.496H163.514C163.77 40.496 164.004 40.56 164.218 40.688L169.082 38ZM231.81 42.288L228.226 43.376L223.554 43.952L223.106 42.864L224.066 39.152L225.218 35.76L225.538 23.664L224.002 20.784H222.146L219.201 22.96H218.498C218.028 22.96 217.73 23.2373 217.602 23.792C217.516 24.304 217.516 24.9013 217.602 25.584C217.218 25.712 216.94 26.352 216.77 27.504L216.514 29.296L216.45 33.2L215.298 38.32L215.746 40.88L215.17 43.184L214.594 43.76L207.49 44.272L206.018 42.928L206.466 40.432L207.362 33.84C207.532 33.072 207.682 32.1973 207.81 31.216C207.98 30.2347 208.108 29.2533 208.194 28.272C208.279 27.248 208.322 26.288 208.322 25.392C208.364 24.4533 208.364 23.6853 208.322 23.088C208.236 22.6187 208.236 22.2347 208.322 21.936C208.407 21.5947 208.428 21.3387 208.386 21.168L207.17 20.016L203.202 20.656L201.922 19.568C200.898 18.9707 200.364 19.3333 200.322 20.656C200.066 21.04 199.831 21.36 199.618 21.616C199.447 21.8293 199.34 22.1707 199.298 22.64C199.084 22.7253 198.914 22.832 198.786 22.96C198.615 23.1307 198.444 23.3867 198.274 23.728C198.103 24.0693 197.975 24.56 197.89 25.2C197.719 26.4373 197.634 27.4827 197.634 28.336C197.634 29.1893 197.74 29.7867 197.954 30.128V31.28L196.866 33.84L196.546 38.384L195.97 42.8L195.458 43.376L187.714 44.016L186.434 42.864L186.818 40.432L187.202 37.104L187.458 32.24C187.458 31.4293 187.564 30.6613 187.778 29.936C187.991 29.2107 188.183 28.4 188.354 27.504L188.994 22.448C189.292 22.1493 189.612 21.616 189.954 20.848C190.338 20.08 190.53 19.3333 190.53 18.608C190.53 18.3947 190.487 18.2453 190.402 18.16C190.359 18.032 190.295 17.8827 190.21 17.712L191.17 16.432C191.255 16.432 191.447 16.4533 191.746 16.496C192.044 16.496 192.386 16.496 192.77 16.496C193.196 16.4533 193.623 16.432 194.05 16.432C194.476 16.3893 194.882 16.3253 195.266 16.24C196.802 16.0267 197.762 15.7067 198.146 15.28L200.578 15.152L200.322 17.584C200.706 17.968 201.111 18.2027 201.538 18.288C202.007 18.3307 202.476 18.2667 202.946 18.096C203.415 17.8827 203.863 17.584 204.29 17.2C204.716 16.7733 205.079 16.2827 205.378 15.728L209.026 15.792C209.495 15.7493 209.943 15.728 210.37 15.728C210.839 15.6853 211.287 15.664 211.714 15.664C212.396 15.664 213.036 15.728 213.634 15.856C214.231 15.9413 214.572 16.0907 214.658 16.304C214.828 17.072 215.191 17.3707 215.746 17.2C215.831 17.1573 215.98 17.3067 216.194 17.648C216.45 17.9467 216.834 18.1387 217.346 18.224C217.602 18.3093 217.772 18.4587 217.858 18.672C217.986 18.8427 218.071 19.0347 218.114 19.248C218.156 19.4613 218.199 19.6533 218.242 19.824C218.284 19.952 218.37 20.016 218.498 20.016L222.21 17.072L228.162 16.112L233.602 20.464L233.73 21.36C233.73 21.616 233.708 21.872 233.666 22.128C233.666 22.3413 233.602 22.512 233.474 22.64V28.4L233.538 34.544L232.386 41.648L231.81 42.288ZM272.072 41.072L263.112 42.16L261.256 39.152C261.256 38.5973 260.829 38.6187 259.976 39.216C259.763 39.344 259.549 39.5573 259.336 39.856C259.123 40.1547 258.909 40.4533 258.696 40.752C258.568 40.9227 258.44 41.0933 258.312 41.264C258.184 41.4347 258.056 41.6267 257.928 41.84C256.605 42.8213 255.24 43.4613 253.832 43.76C252.467 44.0587 251.293 43.8667 250.312 43.184C249.587 43.0987 249.096 42.928 248.84 42.672C248.712 42.5867 248.541 42.4373 248.328 42.224L244.232 41.968L242.504 41.136L240.904 37.104L241.224 35.76L239.816 30.128L242.504 25.648L244.68 23.664C245.491 23.2373 246.429 22.896 247.496 22.64C248.563 22.384 249.629 22.2133 250.696 22.128C251.763 22 252.787 21.9787 253.768 22.064C254.749 22.1067 255.56 22.2347 256.2 22.448C256.2 23.1307 256.413 23.5787 256.84 23.792C257.267 24.0053 258.099 24.24 259.336 24.496C259.763 23.7707 259.976 22.896 259.976 21.872C259.976 20.8053 259.784 19.696 259.4 18.544L258.376 15.28C258.035 15.152 257.501 14.9387 256.776 14.64C256.093 14.2987 255.517 14.0213 255.048 13.808L252.296 14.256L249.48 14.832L248.84 13.808L249.544 12.144L249.992 11.12L250.888 10.928L253.832 10.416L256.456 11.312L259.336 10.864L264.904 12.528L267.272 16.112L268.104 26.288L267.912 29.488L269.32 36.976L270.152 37.36H272.136L272.968 39.6L272.072 41.072ZM248.584 30.64C248.371 31.7493 248.371 32.688 248.584 33.456C248.84 34.224 249.245 34.864 249.8 35.376L250.76 37.36C251.528 37.616 252.253 37.808 252.936 37.936C253.619 38.064 254.323 38.0853 255.048 38C255.816 37.872 256.605 37.6373 257.416 37.296C258.269 36.912 259.251 36.3573 260.36 35.632L260.488 32.368L259.336 26.672C258.739 26.4587 258.205 26.352 257.736 26.352C257.309 26.352 256.883 26.3947 256.456 26.48C255.944 26.608 255.347 26.7147 254.664 26.8C253.981 26.8853 253.277 26.992 252.552 27.12C251.869 27.2053 251.229 27.3333 250.632 27.504C250.077 27.632 249.672 27.824 249.416 28.08L248.584 30.64ZM275.501 21.232C275.33 20.7627 275.202 20.144 275.117 19.376C275.031 18.5653 274.946 17.8827 274.861 17.328L276.077 15.024C276.845 14.896 277.378 14.8533 277.677 14.896C278.018 14.9387 278.274 15.0027 278.445 15.088C278.701 15.0453 279.063 15.0027 279.533 14.96C280.045 14.8747 280.813 14.7467 281.837 14.576C281.922 13.8507 282.071 13.04 282.285 12.144C282.498 11.248 282.647 10.2453 282.733 9.136L281.837 8.24L281.773 7.28L282.477 5.616H290.157L293.037 5.744C293.335 6.08533 293.463 6.49066 293.421 6.96C293.378 7.38667 293.293 7.792 293.165 8.176C293.037 8.56 292.909 8.88 292.781 9.136C292.695 9.34933 292.717 9.41333 292.845 9.328V13.296C292.589 13.5093 292.397 13.7653 292.269 14.064C292.141 14.32 292.034 14.6187 291.949 14.96L292.077 15.088L295.789 14.96C295.917 15.0027 296.045 15.0453 296.173 15.088C296.301 15.1307 296.45 15.1733 296.621 15.216C297.133 15.344 297.794 15.408 298.605 15.408L299.181 16.048L298.477 19.12C298.221 19.12 297.879 19.1627 297.453 19.248C297.026 19.2907 296.578 19.3547 296.109 19.44C295.682 19.4827 295.277 19.5253 294.893 19.568C294.551 19.6107 294.317 19.632 294.189 19.632L291.501 20.4C291.33 20.8693 291.202 21.2747 291.117 21.616C291.074 21.9147 291.053 22.2133 291.053 22.512C291.053 22.768 291.053 23.0667 291.053 23.408C291.095 23.7067 291.117 24.0907 291.117 24.56L290.669 32.688C290.541 33.4133 290.498 34.0747 290.541 34.672C290.626 35.2693 290.733 35.7813 290.861 36.208C290.946 36.4213 291.031 36.6347 291.117 36.848C291.202 37.0613 291.287 37.2747 291.373 37.488L291.949 39.152L292.205 39.472L298.413 37.552L300.781 36.976L302.189 38.256L300.653 40.304L299.181 41.072L297.901 41.328L290.541 44.592C290.327 44.592 290.157 44.5707 290.029 44.528C289.815 44.528 289.559 44.528 289.26 44.528C289.005 44.4853 288.706 44.4427 288.365 44.4C286.829 44.272 285.677 44.3147 284.909 44.528C284.909 43.3333 284.439 42.5227 283.501 42.096C283.031 41.7973 282.605 41.5413 282.22 41.328C281.879 41.1147 281.559 40.944 281.26 40.816C281.26 40.0907 281.26 39.6 281.26 39.344C281.303 39.088 281.261 38.7467 281.133 38.32C281.047 38.1067 281.026 37.6373 281.069 36.912C281.111 36.144 281.154 35.184 281.197 34.032C281.282 32.8373 281.239 31.8773 281.069 31.152C280.898 30.384 280.642 30 280.301 30C280.343 29.4453 280.365 28.8907 280.365 28.336C280.407 27.7813 280.45 27.2907 280.493 26.864C280.535 26.6507 280.557 26.416 280.557 26.16C280.557 25.904 280.557 25.6693 280.557 25.456C280.642 25.2853 280.706 25.1573 280.749 25.072C280.791 24.944 280.834 24.8587 280.877 24.816C280.919 24.7307 281.111 24.624 281.453 24.496C281.837 24.3253 282.178 23.8773 282.477 23.152C283.458 22.4693 283.885 21.8507 283.757 21.296C283.629 20.7413 282.882 20.3573 281.517 20.144C281.218 20.1867 280.962 20.272 280.749 20.4C280.578 20.4853 280.493 20.72 280.493 21.104L276.653 21.936L275.501 21.232ZM333.141 29.36C332.202 29.232 331.37 29.4027 330.645 29.872C330.389 30 330.133 30.128 329.877 30.256C329.621 30.3413 329.365 30.4267 329.109 30.512C328.981 30.5547 328.853 30.5973 328.725 30.64C328.597 30.6827 328.49 30.7253 328.405 30.768L319.509 33.456C317.034 32.9013 316.16 33.3067 316.885 34.672C317.013 34.9707 317.184 35.4187 317.397 36.016C317.61 36.6133 317.781 37.04 317.909 37.296C318.464 37.5093 319.04 37.8507 319.637 38.32C320.234 38.7467 320.789 39.0027 321.301 39.088L322.453 38.96C322.752 38.96 323.157 38.9387 323.669 38.896C324.224 38.8533 324.757 38.7893 325.269 38.704C325.824 38.576 326.314 38.4267 326.741 38.256C327.21 38.0853 327.53 37.872 327.701 37.616C327.829 37.4027 328.021 37.2533 328.277 37.168C328.533 37.04 328.789 36.9333 329.045 36.848C329.216 36.8053 329.365 36.784 329.493 36.784C329.664 36.7413 329.856 36.6987 330.069 36.656L330.773 39.152L330.005 40.624C329.962 40.7093 329.813 40.816 329.557 40.944C329.344 41.0293 329.088 41.1573 328.789 41.328C328.49 41.4987 328.192 41.6693 327.893 41.84C327.637 41.968 327.445 42.096 327.317 42.224C327.232 42.3093 326.997 42.352 326.613 42.352C326.272 42.352 325.866 42.352 325.397 42.352C324.97 42.352 324.522 42.3733 324.053 42.416C323.584 42.4587 323.221 42.544 322.965 42.672C322.368 42.9707 321.898 43.1627 321.557 43.248C321.258 43.3333 321.002 43.3973 320.789 43.44C320.576 43.5253 320.426 43.504 320.341 43.376C320.256 43.3333 320.106 43.312 319.893 43.312C319.765 43.312 319.594 43.312 319.381 43.312C319.168 43.312 318.954 43.2907 318.741 43.248C318.186 43.2053 317.738 43.184 317.397 43.184C317.056 43.1413 316.842 43.12 316.757 43.12L310.613 40.112C310.485 38.832 309.888 38.192 308.821 38.192C308.608 38.192 308.352 38.0213 308.053 37.68C307.754 37.296 307.498 36.8907 307.285 36.464C307.114 36.2507 306.965 36.016 306.837 35.76C306.709 35.4613 306.581 35.1413 306.453 34.8L305.877 27.504L306.453 23.216C306.496 23.0453 306.624 22.832 306.837 22.576C307.093 22.1493 307.413 21.5093 307.797 20.656C307.968 20.272 308.309 19.9093 308.821 19.568C309.333 19.2267 309.866 18.928 310.421 18.672C311.018 18.3733 311.573 18.1173 312.085 17.904C312.64 17.648 313.045 17.4347 313.301 17.264C313.813 17.3493 314.56 16.7947 315.541 15.6C315.797 15.3013 316.117 15.0667 316.501 14.896C316.885 14.6827 317.269 14.512 317.653 14.384C317.866 14.2987 318.101 14.2347 318.357 14.192C318.613 14.1493 318.848 14.1067 319.061 14.064L326.549 15.024C326.976 15.1093 327.424 15.2373 327.893 15.408C328.234 15.5787 328.576 15.792 328.917 16.048C329.258 16.304 329.536 16.6027 329.749 16.944C330.048 17.6693 330.474 18.2667 331.029 18.736C331.584 19.1627 332.032 19.4613 332.373 19.632L334.741 23.856L334.229 28.016L333.141 29.36ZM323.669 27.184L324.181 26.8C324.309 26.7147 324.437 26.6293 324.565 26.544C324.693 26.416 324.8 26.3307 324.885 26.288C325.184 26.2027 325.525 26.032 325.909 25.776C326.293 25.52 326.442 25.2 326.357 24.816C326.357 24.0907 325.973 23.28 325.205 22.384C324.437 21.488 323.434 20.848 322.197 20.464C321.6 20.2507 321.024 20.144 320.469 20.144C319.914 20.144 319.381 20.1867 318.869 20.272C318.4 20.3147 317.952 20.3787 317.525 20.464C317.141 20.5493 316.821 20.592 316.565 20.592C315.584 20.3787 315.029 20.8267 314.901 21.936C314.261 22.9173 313.941 24.0053 313.941 25.2C313.984 26.352 314.112 27.4613 314.325 28.528C314.325 29.1253 314.432 29.616 314.645 30C314.901 30.384 315.2 30.6187 315.541 30.704C315.882 30.7893 316.224 30.7253 316.565 30.512C316.949 30.256 317.269 29.808 317.525 29.168L323.669 27.184Z" fill="black"/>
<path d="M41 0L79.9711 56.25H2.02886L41 0Z" fill="#CA4646"/>
<path d="M32 6L63.1769 53.25H0.823086L32 6Z" fill="#F5E7E7"/>
</svg>
